# xmcd
#
# Track frame offsets:
#	150
#	6127
#	26056
#	43807
#	65654
#	80084
#	93483
#	106003
#	121929
#	140202
#	155042
#	170553
#	185610
#	209981
#	229729
#	244033
#	257825
#	273041
#	287757
#	302120
#	314537
#
# Disc length: 4344 seconds
#
# Revision: 0
# Processed by: cddbd v1.5.2PL0 Copyright (c) Steve Scherf et al.
# Submitted via: EasyCDDAExtractor 16.0.6.1
#
DISCID=3d10f615
DTITLE=Γκρέκα Στέλλα - Μιά φωνή μύθος-Σ. Γκρέκα
DYEAR=2014
DGENRE=Ελαφρά
TTITLE0=Γκρέκα Στέλλα - Ζητάτε να σάς πω [Αττίκ]
TTITLE1=Γκρέκα Στέλλα - Δυό πράσινα μάτια [Μίμης Κατριβάνος-Κώστας Κιούσης]
TTITLE2=Γκρέκα Στέλλα - Αγαπημένε μου χρόνια πολλά [Χρήστος Χαιρόπουλος]
TTITLE3=Γκρέκα Στέλλα - Ήρθες σαν την Άνοιξη [Τάκης Μωράκης-Κώστας Κοφινιώτης]
TTITLE4=Γκρέκα Στέλλα - Μαραμένα τα γιούλια κι οι βιόλες [Αττίκ]
TTITLE5=Γκρέκα Στέλλα - Ψαροπούλα [Χρ. Χαιρόπουλος-Χρ. Γιαννακόπουλος]
TTITLE6=Γκρέκα Στέλλα - Για σένα, μονάχα για σένα [Κώστας Γιαννίδης]
TTITLE7=Γκρέκα Στέλλα - Τα καϋμένα τα νιάτα [Αττίκ]
TTITLE8=Γκρέκα Στέλλα - Παπαρούνα [Αττίκ]
TTITLE9=Γκρέκα Στέλλα - Χθες το βράδυ [Κώστας Γιαννίδης-Δημ. Γιαννουκάκης]
TTITLE10=Γκρέκα Στέλλα - Πού νά 'σαι τώρα [Μ.Σουγιούλ-Α.Σακελλάριος/Χ.Γιαννακ)
TTITLE10=λος]
TTITLE11=Γκρέκα Στέλλα - Είδα μάτια πολλά [Αττίκ]
TTITLE12=Γκρέκα Στέλλα - Έλα για απόψε [Χρήστος Χαιρόπουλος]
TTITLE13=Γκρέκα Στέλλα - Το τρεχαντήρι [Αττίκ]
TTITLE14=Γκρέκα Στέλλα - Το τραγούδι της Μαρίνας [Κ. Γιαννίδης-Αλ. Σακελλάριος
TTITLE14=]
TTITLE15=Γκρέκα Στέλλα - Της φαντασίας το καράβι [Χρ. Χαιρόπουλος-Αιμ. Σαββίδη
TTITLE15=ς]
TTITLE16=Γκρέκα Στέλλα - Γύρισε, σε περιμένω γύρισε [Γιάννης Βέλλας-Νίκος Φατσ
TTITLE16=έας]
TTITLE17=Γκρέκα Στέλλα - Πέρσι τέτοιο καιρό [Κώστας Γιαννίδης-Κώστας Μάνεσης]
TTITLE18=Γκρέκα Στέλλα - Πάμε στο άγνωστο [Μεν. Θεοφανίδης-Δημ. Ευαγγελίδης]
TTITLE19=Γκρέκα Στέλλα - Σαν το παλιό το βαλσάκι [Γιάννης Καστριώτης-Ορέστης Λ
TTITLE19=άσκος]
TTITLE20=Βελισσάριος Μπάμπης - Έλα, Στέλλα [Μιχάλης Κουμπιός-Ορέστης Λάσκος]
EXTD=
EXTT0=
EXTT1=
EXTT2=
EXTT3=
EXTT4=
EXTT5=
EXTT6=
EXTT7=
EXTT8=
EXTT9=
EXTT10=
EXTT11=
EXTT12=
EXTT13=
EXTT14=
EXTT15=
EXTT16=
EXTT17=
EXTT18=
EXTT19=
EXTT20=
PLAYORDER=
